<svg id="my-svg" width="100%" xmlns="http://www.w3.org/2000/svg" xmlns:xlink="http://www.w3.org/1999/xlink" class="flowchart" style="max-width: 2570.8px; background-color: white;" viewBox="4.0904998779296875 -50 2570.800048828125 999" role="graphics-document document" aria-roledescription="flowchart-v2"><style>#my-svg{font-family:"trebuchet ms",verdana,arial,sans-serif;font-size:16px;fill:#333;}@keyframes edge-animation-frame{from{stroke-dashoffset:0;}}@keyframes dash{to{stroke-dashoffset:0;}}#my-svg .edge-animation-slow{stroke-dasharray:9,5!important;stroke-dashoffset:900;animation:dash 50s linear infinite;stroke-linecap:round;}#my-svg .edge-animation-fast{stroke-dasharray:9,5!important;stroke-dashoffset:900;animation:dash 20s linear infinite;stroke-linecap:round;}#my-svg .error-icon{fill:#552222;}#my-svg .error-text{fill:#552222;stroke:#552222;}#my-svg .edge-thickness-normal{stroke-width:1px;}#my-svg .edge-thickness-thick{stroke-width:3.5px;}#my-svg .edge-pattern-solid{stroke-dasharray:0;}#my-svg .edge-thickness-invisible{stroke-width:0;fill:none;}#my-svg .edge-pattern-dashed{stroke-dasharray:3;}#my-svg .edge-pattern-dotted{stroke-dasharray:2;}#my-svg .marker{fill:#333333;stroke:#333333;}#my-svg .marker.cross{stroke:#333333;}#my-svg svg{font-family:"trebuchet ms",verdana,arial,sans-serif;font-size:16px;}#my-svg p{margin:0;}#my-svg .label{font-family:"trebuchet ms",verdana,arial,sans-serif;color:#333;}#my-svg .cluster-label text{fill:#333;}#my-svg .cluster-label span{color:#333;}#my-svg .cluster-label span p{background-color:transparent;}#my-svg .label text,#my-svg span{fill:#333;color:#333;}#my-svg .node rect,#my-svg .node circle,#my-svg .node ellipse,#my-svg .node polygon,#my-svg .node path{fill:#ECECFF;stroke:#9370DB;stroke-width:1px;}#my-svg .rough-node .label text,#my-svg .node .label text,#my-svg .image-shape .label,#my-svg .icon-shape .label{text-anchor:middle;}#my-svg .node .katex path{fill:#000;stroke:#000;stroke-width:1px;}#my-svg .rough-node .label,#my-svg .node .label,#my-svg .image-shape .label,#my-svg .icon-shape .label{text-align:center;}#my-svg .node.clickable{cursor:pointer;}#my-svg .root .anchor path{fill:#333333!important;stroke-width:0;stroke:#333333;}#my-svg .arrowheadPath{fill:#333333;}#my-svg .edgePath .path{stroke:#333333;stroke-width:1px;}#my-svg .flowchart-link{stroke:#333333;fill:none;}#my-svg .edgeLabel{background-color:rgba(232,232,232, 0.8);text-align:center;}#my-svg .edgeLabel p{background-color:rgba(232,232,232, 0.8);}#my-svg .edgeLabel rect{opacity:0.5;background-color:rgba(232,232,232, 0.8);fill:rgba(232,232,232, 0.8);}#my-svg .labelBkg{background-color:rgba(232, 232, 232, 0.5);}#my-svg .cluster rect{fill:#ffffde;stroke:#aaaa33;stroke-width:1px;}#my-svg .cluster text{fill:#333;}#my-svg .cluster span{color:#333;}#my-svg div.mermaidTooltip{position:absolute;text-align:center;max-width:200px;padding:2px;font-family:"trebuchet ms",verdana,arial,sans-serif;font-size:12px;background:hsl(80, 100%, 96.2745098039%);border:1px solid #aaaa33;border-radius:2px;pointer-events:none;z-index:100;}#my-svg .flowchartTitleText{text-anchor:middle;font-size:18px;fill:#333;}#my-svg rect.text{fill:none;stroke-width:0;}#my-svg .icon-shape,#my-svg .image-shape{background-color:rgba(232,232,232, 0.8);text-align:center;}#my-svg .icon-shape p,#my-svg .image-shape p{background-color:rgba(232,232,232, 0.8);padding:2px;}#my-svg .icon-shape .label rect,#my-svg .image-shape .label rect{opacity:0.5;background-color:rgba(232,232,232, 0.8);fill:rgba(232,232,232, 0.8);}#my-svg .label-icon{display:inline-block;height:1em;overflow:visible;vertical-align:-0.125em;}#my-svg .node .label-icon path{fill:currentColor;stroke:revert;stroke-width:revert;}#my-svg .node .neo-node{stroke:#9370DB;}#my-svg [data-look="neo"].node rect,#my-svg [data-look="neo"].cluster rect,#my-svg [data-look="neo"].node polygon{stroke:#9370DB;filter:drop-shadow(1px 2px 2px rgba(185, 185, 185, 1));}#my-svg [data-look="neo"].node path{stroke:#9370DB;stroke-width:1px;}#my-svg [data-look="neo"].node .outer-path{filter:drop-shadow(1px 2px 2px rgba(185, 185, 185, 1));}#my-svg [data-look="neo"].node .neo-line path{stroke:#9370DB;filter:none;}#my-svg [data-look="neo"].node circle{stroke:#9370DB;filter:drop-shadow(1px 2px 2px rgba(185, 185, 185, 1));}#my-svg [data-look="neo"].node circle .state-start{fill:#000000;}#my-svg [data-look="neo"].icon-shape .icon{fill:#9370DB;filter:drop-shadow(1px 2px 2px rgba(185, 185, 185, 1));}#my-svg [data-look="neo"].icon-shape .icon-neo path{stroke:#9370DB;filter:drop-shadow(1px 2px 2px rgba(185, 185, 185, 1));}#my-svg :root{--mermaid-font-family:"trebuchet ms",verdana,arial,sans-serif;}#my-svg .actor&gt;*{fill:#08427B!important;stroke:#08427B!important;color:#ffffff!important;}#my-svg .actor span{fill:#08427B!important;stroke:#08427B!important;color:#ffffff!important;}#my-svg .actor tspan{fill:#ffffff!important;}#my-svg .component&gt;*{fill:#438DD5!important;stroke:#438DD5!important;color:#ffffff!important;}#my-svg .component span{fill:#438DD5!important;stroke:#438DD5!important;color:#ffffff!important;}#my-svg .component tspan{fill:#ffffff!important;}#my-svg .external&gt;*{fill:#6B4C9A!important;stroke:#6B4C9A!important;color:#ffffff!important;}#my-svg .external span{fill:#6B4C9A!important;stroke:#6B4C9A!important;color:#ffffff!important;}#my-svg .external tspan{fill:#ffffff!important;}#my-svg .db&gt;*{fill:#7A9EC8!important;stroke:#7A9EC8!important;color:#ffffff!important;}#my-svg .db span{fill:#7A9EC8!important;stroke:#7A9EC8!important;color:#ffffff!important;}#my-svg .db tspan{fill:#ffffff!important;}</style><g><marker id="my-svg_flowchart-v2-pointEnd" class="marker flowchart-v2" viewBox="0 0 10 10" refX="5" refY="5" markerUnits="userSpaceOnUse" markerWidth="8" markerHeight="8" orient="auto"><path d="M 0 0 L 10 5 L 0 10 z" class="arrowMarkerPath" style="stroke-width: 1; stroke-dasharray: 1, 0;"/></marker><marker id="my-svg_flowchart-v2-pointStart" class="marker flowchart-v2" viewBox="0 0 10 10" refX="4.5" refY="5" markerUnits="userSpaceOnUse" markerWidth="8" markerHeight="8" orient="auto"><path d="M 0 5 L 10 10 L 10 0 z" class="arrowMarkerPath" style="stroke-width: 1; stroke-dasharray: 1, 0;"/></marker><marker id="my-svg_flowchart-v2-pointEnd-margin" class="marker flowchart-v2" viewBox="0 0 11.5 14" refX="11.5" refY="7" markerUnits="userSpaceOnUse" markerWidth="10.5" markerHeight="14" orient="auto"><path d="M 0 0 L 11.5 7 L 0 14 z" class="arrowMarkerPath" style="stroke-width: 0; stroke-dasharray: 1, 0;"/></marker><marker id="my-svg_flowchart-v2-pointStart-margin" class="marker flowchart-v2" viewBox="0 0 11.5 14" refX="1" refY="7" markerUnits="userSpaceOnUse" markerWidth="11.5" markerHeight="14" orient="auto"><polygon points="0,7 11.5,14 11.5,0" class="arrowMarkerPath" style="stroke-width: 0; stroke-dasharray: 1, 0;"/></marker><marker id="my-svg_flowchart-v2-circleEnd" class="marker flowchart-v2" viewBox="0 0 10 10" refX="11" refY="5" markerUnits="userSpaceOnUse" markerWidth="11" markerHeight="11" orient="auto"><circle cx="5" cy="5" r="5" class="arrowMarkerPath" style="stroke-width: 1; stroke-dasharray: 1, 0;"/></marker><marker id="my-svg_flowchart-v2-circleStart" class="marker flowchart-v2" viewBox="0 0 10 10" refX="-1" refY="5" markerUnits="userSpaceOnUse" markerWidth="11" markerHeight="11" orient="auto"><circle cx="5" cy="5" r="5" class="arrowMarkerPath" style="stroke-width: 1; stroke-dasharray: 1, 0;"/></marker><marker id="my-svg_flowchart-v2-circleEnd-margin" class="marker flowchart-v2" viewBox="0 0 10 10" refY="5" refX="12.25" markerUnits="userSpaceOnUse" markerWidth="14" markerHeight="14" orient="auto"><circle cx="5" cy="5" r="5" class="arrowMarkerPath" style="stroke-width: 0; stroke-dasharray: 1, 0;"/></marker><marker id="my-svg_flowchart-v2-circleStart-margin" class="marker flowchart-v2" viewBox="0 0 10 10" refX="-2" refY="5" markerUnits="userSpaceOnUse" markerWidth="14" markerHeight="14" orient="auto"><circle cx="5" cy="5" r="5" class="arrowMarkerPath" style="stroke-width: 0; stroke-dasharray: 1, 0;"/></marker><marker id="my-svg_flowchart-v2-crossEnd" class="marker cross flowchart-v2" viewBox="0 0 11 11" refX="12" refY="5.2" markerUnits="userSpaceOnUse" markerWidth="11" markerHeight="11" orient="auto"><path d="M 1,1 l 9,9 M 10,1 l -9,9" class="arrowMarkerPath" style="stroke-width: 2; stroke-dasharray: 1, 0;"/></marker><marker id="my-svg_flowchart-v2-crossStart" class="marker cross flowchart-v2" viewBox="0 0 11 11" refX="-1" refY="5.2" markerUnits="userSpaceOnUse" markerWidth="11" markerHeight="11" orient="auto"><path d="M 1,1 l 9,9 M 10,1 l -9,9" class="arrowMarkerPath" style="stroke-width: 2; stroke-dasharray: 1, 0;"/></marker><marker id="my-svg_flowchart-v2-crossEnd-margin" class="marker cross flowchart-v2" viewBox="0 0 15 15" refX="17.7" refY="7.5" markerUnits="userSpaceOnUse" markerWidth="12" markerHeight="12" orient="auto"><path d="M 1,1 L 14,14 M 1,14 L 14,1" class="arrowMarkerPath" style="stroke-width: 2.5;"/></marker><marker id="my-svg_flowchart-v2-crossStart-margin" class="marker cross flowchart-v2" viewBox="0 0 15 15" refX="-3.5" refY="7.5" markerUnits="userSpaceOnUse" markerWidth="12" markerHeight="12" orient="auto"><path d="M 1,1 L 14,14 M 1,14 L 14,1" class="arrowMarkerPath" style="stroke-width: 2.5; stroke-dasharray: 1, 0;"/></marker></g><defs><filter id="my-svg-drop-shadow" height="130%" width="130%"><feDropShadow dx="4" dy="4" stdDeviation="0" flood-opacity="0.06" flood-color="#000000"/></filter></defs><defs><filter id="my-svg-drop-shadow-small" height="150%" width="150%"><feDropShadow dx="2" dy="2" stdDeviation="0" flood-opacity="0.06" flood-color="#000000"/></filter></defs><g class="subgraphs"><g class="subgraph"><g class="cluster" id="[object Object]" data-look="classic"><rect style="fill:#ffffff !important;stroke:#7A9EC8 !important" x="2331.125" y="499.3787612915039" width="235.765625" height="300.5343246459961"/><g class="cluster-label" transform="translate(2391.734375, 499.3787612915039)"><foreignObject width="114.546875" height="24"><div xmlns="http://www.w3.org/1999/xhtml" style="display: table-cell; white-space: nowrap; line-height: 1.5;"><span class="nodeLabel"><p>Knowledge Base</p></span></div></foreignObject></g></g></g><g class="subgraph"><g class="cluster" id="[object Object]" data-look="classic"><rect style="fill:#ffffff !important;stroke:#6B4C9A !important" x="399.203125" y="42" width="190.53125" height="153"/><g class="cluster-label" transform="translate(464.59375, 42)"><foreignObject width="59.75" height="24"><div xmlns="http://www.w3.org/1999/xhtml" style="display: table-cell; white-space: nowrap; line-height: 1.5;"><span class="nodeLabel"><p>External</p></span></div></foreignObject></g></g></g><g class="subgraph"><g class="cluster" id="[object Object]" data-look="classic"><rect style="fill:#ffffff !important;stroke:#438DD5 !important" x="828.65625" y="88" width="1226.328125" height="824"/><g class="cluster-label" transform="translate(1387.3671875, 88)"><foreignObject width="108.90625" height="24"><div xmlns="http://www.w3.org/1999/xhtml" style="display: table-cell; white-space: nowrap; line-height: 1.5;"><span class="nodeLabel"><p>Analysis Engine</p></span></div></foreignObject></g></g></g><g class="subgraph"><g class="cluster" id="[object Object]" data-look="classic"><rect style="fill:#ffffff !important;stroke:#ffffff !important" x="54.5" y="230" width="535.234375" height="344"/><g class="cluster-label" transform="translate(322.1171875, 230)"><foreignObject width="0" height="0"><div xmlns="http://www.w3.org/1999/xhtml" style="display: table-cell; white-space: nowrap; line-height: 1.5;"><span class="nodeLabel"></span></div></foreignObject></g></g></g><g class="subgraph"><g class="cluster" id="[object Object]" data-look="classic"><rect style="fill:#e8f4fd !important;stroke:#438DD5 !important" x="289.1875" y="297" width="281.046875" height="157"/><g class="cluster-label" transform="translate(429.7109375, 297)"><foreignObject width="0" height="0"><div xmlns="http://www.w3.org/1999/xhtml" style="display: table-cell; white-space: nowrap; line-height: 1.5;"><span class="nodeLabel"></span></div></foreignObject></g></g></g></g><g class="nodes"><g class="node default db" id="my-svg-flowchart-kg-11" data-look="classic" transform="translate(2449.0078125, 593.459587097168)"><path d="M0,15.720549343478867 a105.8828125,15.720549343478867 0,0,0 211.765625,0 a105.8828125,15.720549343478867 0,0,0 -211.765625,0 l0,78.72054934347887 a105.8828125,15.720549343478867 0,0,0 211.765625,0 l0,-78.72054934347887" class="basic label-container outer-path" style="fill:#7A9EC8 !important;stroke:#7A9EC8 !important" transform="translate(-105.8828125, -55.0808240152183)"/><g class="label" style="color:#ffffff !important" transform="translate(-98.3828125, -14)"><rect/><foreignObject width="196.765625" height="48"><div style="color: rgb(255, 255, 255) !important; display: table-cell; white-space: nowrap; line-height: 1.5; max-width: 200px; text-align: center;" xmlns="http://www.w3.org/1999/xhtml"><span style="color:#ffffff !important" class="nodeLabel"><p>Structure Knowledge Graph<br />기존 구조·의존성·흐름</p></span></div></foreignObject></g></g><g class="node default db" id="my-svg-flowchart-catalog-12" data-look="classic" transform="translate(2444.3671875, 733.226749420166)"><path d="M0,15.457559998091511 a101.2421875,15.457559998091511 0,0,0 202.484375,0 a101.2421875,15.457559998091511 0,0,0 -202.484375,0 l0,78.45755999809151 a101.2421875,15.457559998091511 0,0,0 202.484375,0 l0,-78.45755999809151" class="basic label-container outer-path" style="fill:#7A9EC8 !important;stroke:#7A9EC8 !important" transform="translate(-101.2421875, -54.68633999713727)"/><g class="label" style="color:#ffffff !important" transform="translate(-93.7421875, -14)"><rect/><foreignObject width="187.484375" height="48"><div style="color: rgb(255, 255, 255) !important; display: table-cell; white-space: nowrap; line-height: 1.5; max-width: 200px; text-align: center;" xmlns="http://www.w3.org/1999/xhtml"><span style="color:#ffffff !important" class="nodeLabel"><p>Business Logic Catalog<br />비즈니스 규칙·규칙-코드 링크</p></span></div></foreignObject></g></g><g class="node default external" id="my-svg-flowchart-llm-10" data-look="classic" transform="translate(494.46875, 132)"><rect class="basic label-container" style="fill:#6B4C9A !important;stroke:#6B4C9A !important" x="-83.265625" y="-51" width="166.53125" height="102"/><g class="label" style="color:#ffffff !important" transform="translate(-53.265625, -36)"><rect/><foreignObject width="106.53125" height="72"><div style="color: rgb(255, 255, 255) !important; display: table-cell; white-space: nowrap; line-height: 1.5; max-width: 200px; text-align: center;" xmlns="http://www.w3.org/1999/xhtml"><span style="color:#ffffff !important" class="nodeLabel"><p>LLM<br />외부 시스템<br />자연어 합성 응답</p></span></div></foreignObject></g></g><g class="node default component" id="my-svg-flowchart-selector-3" data-look="classic" transform="translate(968.375, 506)"><rect class="basic label-container" style="fill:#438DD5 !important;stroke:#438DD5 !important" x="-127.71875" y="-51" width="255.4375" height="102"/><g class="label" style="color:#ffffff !important" transform="translate(-97.71875, -36)"><rect/><foreignObject width="195.4375" height="72"><div style="color: rgb(255, 255, 255) !important; display: table-cell; white-space: nowrap; line-height: 1.5; max-width: 200px; text-align: center;" xmlns="http://www.w3.org/1999/xhtml"><span style="color:#ffffff !important" class="nodeLabel"><p>Analysis Coordinator<br />Diff·객체 두 진입 경로 통합<br />분석 범위 확정·오케스트레이션</p></span></div></foreignObject></g></g><g class="node default component" id="my-svg-flowchart-impact-4" data-look="classic" transform="translate(1509.859375, 206)"><rect class="basic label-container" style="fill:#438DD5 !important;stroke:#438DD5 !important" x="-130" y="-63" width="260" height="126"/><g class="label" style="color:#ffffff !important" transform="translate(-100, -48)"><rect/><foreignObject width="200" height="96"><div style="color: rgb(255, 255, 255) !important; display: table; white-space: break-spaces; line-height: 1.5; max-width: 200px; text-align: center; width: 200px;" xmlns="http://www.w3.org/1999/xhtml"><span style="color:#ffffff !important" class="nodeLabel"><p>Dependency Impact Analyzer<br />의존 그래프 탐색<br />직접·간접 영향 경로 도출</p></span></div></foreignObject></g></g><g class="node default component" id="my-svg-flowchart-rule-5" data-look="classic" transform="translate(1517.7135416666665, 638)"><rect class="basic label-container" style="fill:#438DD5 !important;stroke:#438DD5 !important" x="-106.4375" y="-51" width="212.875" height="102"/><g class="label" style="color:#ffffff !important" transform="translate(-76.4375, -36)"><rect/><foreignObject width="152.875" height="72"><div style="color: rgb(255, 255, 255) !important; display: table-cell; white-space: nowrap; line-height: 1.5; max-width: 200px; text-align: center;" xmlns="http://www.w3.org/1999/xhtml"><span style="color:#ffffff !important" class="nodeLabel"><p>Rule Impact Analyzer<br />비즈니스 규칙 영향 탐지<br />트랜잭션 의미 변화 분석</p></span></div></foreignObject></g></g><g class="node default component" id="my-svg-flowchart-test-6" data-look="classic" transform="translate(1509.859375, 362)"><rect class="basic label-container" style="fill:#438DD5 !important;stroke:#438DD5 !important" x="-130" y="-63" width="260" height="126"/><g class="label" style="color:#ffffff !important" transform="translate(-100, -48)"><rect/><foreignObject width="200" height="96"><div style="color: rgb(255, 255, 255) !important; display: table; white-space: break-spaces; line-height: 1.5; max-width: 200px; text-align: center; width: 200px;" xmlns="http://www.w3.org/1999/xhtml"><span style="color:#ffffff !important" class="nodeLabel"><p>Boundary &amp; Test Impact Analyzer<br />시스템 경계 전파 영향<br />영향 테스트·우선순위</p></span></div></foreignObject></g></g><g class="node default component" id="my-svg-flowchart-scorer-7" data-look="classic" transform="translate(1479.8984375, 506)"><rect class="basic label-container" style="fill:#438DD5 !important;stroke:#438DD5 !important" x="-100.0390625" y="-51" width="200.078125" height="102"/><g class="label" style="color:#ffffff !important" transform="translate(-70.0390625, -36)"><rect/><foreignObject width="140.078125" height="72"><div style="color: rgb(255, 255, 255) !important; display: table-cell; white-space: nowrap; line-height: 1.5; max-width: 200px; text-align: center;" xmlns="http://www.w3.org/1999/xhtml"><span style="color:#ffffff !important" class="nodeLabel"><p>Risk Scorer<br />리스크 점수·등급<br />핫스팟·우선 점검 추천</p></span></div></foreignObject></g></g><g class="node default component" id="my-svg-flowchart-insight-8" data-look="classic" transform="translate(1512.6140625, 770)"><rect class="basic label-container" style="fill:#438DD5 !important;stroke:#438DD5 !important" x="-116.2265625" y="-51" width="232.453125" height="102"/><g class="label" style="color:#ffffff !important" transform="translate(-86.2265625, -36)"><rect/><foreignObject width="172.453125" height="72"><div style="color: rgb(255, 255, 255) !important; display: table-cell; white-space: nowrap; line-height: 1.5; max-width: 200px; text-align: center;" xmlns="http://www.w3.org/1999/xhtml"><span style="color:#ffffff !important" class="nodeLabel"><p>Insight Generator<br />LLM 호출·응답 정합성 검증<br />리스크 서사·비즈니스 번역</p></span></div></foreignObject></g></g><g class="node default component" id="my-svg-flowchart-composer-9" data-look="classic" transform="translate(1950.796875, 787)"><rect class="basic label-container" style="fill:#438DD5 !important;stroke:#438DD5 !important" x="-92.1875" y="-51" width="184.375" height="102"/><g class="label" style="color:#ffffff !important" transform="translate(-62.1875, -36)"><rect/><foreignObject width="124.375" height="72"><div style="color: rgb(255, 255, 255) !important; display: table-cell; white-space: nowrap; line-height: 1.5; max-width: 200px; text-align: center;" xmlns="http://www.w3.org/1999/xhtml"><span style="color:#ffffff !important" class="nodeLabel"><p>Report Assembler<br />시각화 레이아웃<br />리포트 원본 조립</p></span></div></foreignObject></g></g><g class="node default component" id="my-svg-flowchart-wa-1" data-look="classic" transform="translate(429.7109375, 403)"><rect class="basic label-container" style="fill:#438DD5 !important;stroke:#438DD5 !important" x="-128.5234375" y="-39" width="257.046875" height="78"/><g class="label" style="color:#ffffff !important" transform="translate(-98.5234375, -24)"><rect/><foreignObject width="197.046875" height="48"><div style="color: rgb(255, 255, 255) !important; display: table-cell; white-space: nowrap; line-height: 1.5; max-width: 200px; text-align: center;" xmlns="http://www.w3.org/1999/xhtml"><span style="color:#ffffff !important" class="nodeLabel"><p>Interaction Gateway<br />사용자 UI 진입점 · 결과 렌더링</p></span></div></foreignObject></g></g><g class="node default actor" id="my-svg-flowchart-user-0" data-look="classic" transform="translate(159.09375, 445)"><rect class="basic label-container" style="fill:#08427B !important;stroke:#08427B !important" x="-92.59375" y="-39" width="185.1875" height="78"/><g class="label" style="color:#ffffff !important" transform="translate(-62.59375, -24)"><rect/><foreignObject width="125.1875" height="48"><div style="color: rgb(255, 255, 255) !important; display: table-cell; white-space: nowrap; line-height: 1.5; max-width: 200px; text-align: center;" xmlns="http://www.w3.org/1999/xhtml"><span style="color:#ffffff !important" class="nodeLabel"><p>Dev / Reviewer<br />변경 영향 분석 요청</p></span></div></foreignObject></g></g><g class="node default actor" id="my-svg-flowchart-ip-2" data-look="classic" transform="translate(457.7421875, 523)"><rect class="basic label-container" style="fill:#08427B !important;stroke:#08427B !important" x="-112.4921875" y="-39" width="224.984375" height="78"/><g class="label" style="color:#ffffff !important" transform="translate(-82.4921875, -24)"><rect/><foreignObject width="164.984375" height="48"><div style="color: rgb(255, 255, 255) !important; display: table-cell; white-space: nowrap; line-height: 1.5; max-width: 200px; text-align: center;" xmlns="http://www.w3.org/1999/xhtml"><span style="color:#ffffff !important" class="nodeLabel"><p>Local Change Collector<br />IDE 로컬 변경 수집·전달</p></span></div></foreignObject></g></g></g><g class="edges edgePaths"><path d="M251.688,445L253.354,445C255.021,445,258.354,445,260.492,444.638C262.63,444.276,263.573,443.552,264.406,442.719C265.24,441.886,265.964,440.943,266.326,437.305C266.688,433.667,266.688,427.333,267.049,423.695C267.411,420.057,268.135,419.114,268.969,418.281C269.802,417.448,270.745,416.724,272.883,416.362C275.021,416,278.354,416,282.604,416C286.854,416,292.021,416,294.604,416L297.188,416" id="my-svg-L_user_wa_0_0" class="edge-thickness-normal edge-pattern-solid edge-thickness-normal edge-pattern-solid flowchart-link" style=";" data-edge="true" data-et="edge" data-id="L_user_wa_0_0" data-points="W3sieCI6MjUxLjY4NzUsInkiOjQ0NX0seyJ4IjoyNjYuNjg3NSwieSI6NDQ1fSx7IngiOjI2Ni42ODc1LCJ5Ijo0MTZ9LHsieCI6MjgxLjY4NzUsInkiOjQxNn0seyJ4IjozMDEuMTg3NSwieSI6NDE2fV0=" data-look="classic" marker-end="url(#my-svg_flowchart-v2-pointEnd)"/><path d="M558.234,403L561.484,403C564.734,403,571.234,403,577.734,403C584.234,403,590.734,403,627.555,403C664.375,403,731.516,403,765.557,403.362C799.599,403.724,800.542,404.448,801.375,405.281C802.209,406.114,802.932,407.057,803.294,420.195C803.656,433.333,803.656,458.667,804.018,471.805C804.38,484.943,805.104,485.886,805.937,486.719C806.771,487.552,807.713,488.276,810.268,488.638C812.823,489,816.99,489,821.656,489C826.323,489,831.49,489,834.073,489L836.656,489" id="my-svg-L_wa_selector_0_0" class="edge-thickness-normal edge-pattern-solid edge-thickness-normal edge-pattern-solid flowchart-link" style=";" data-edge="true" data-et="edge" data-id="L_wa_selector_0_0" data-points="W3sieCI6NTU4LjIzNDM3NSwieSI6NDAzfSx7IngiOjU3Ny43MzQzNzUsInkiOjQwM30seyJ4Ijo1OTcuMjM0Mzc1LCJ5Ijo0MDN9LHsieCI6ODAzLjY1NjI1LCJ5Ijo0MDN9LHsieCI6ODAzLjY1NjI1LCJ5Ijo0ODl9LHsieCI6ODIxLjE1NjI1LCJ5Ijo0ODl9LHsieCI6ODQwLjY1NjI1LCJ5Ijo0ODl9XQ==" data-look="classic" marker-end="url(#my-svg_flowchart-v2-pointEnd)"/><path d="M570.234,523L574.734,523C579.234,523,588.234,523,630.055,523C671.875,523,746.516,523,786.419,523C826.323,523,831.49,523,834.073,523L836.656,523" id="my-svg-L_ip_selector_0_0" class="edge-thickness-normal edge-pattern-solid edge-thickness-normal edge-pattern-solid flowchart-link" style=";" data-edge="true" data-et="edge" data-id="L_ip_selector_0_0" data-points="W3sieCI6NTcwLjIzNDM3NSwieSI6NTIzfSx7IngiOjU5Ny4yMzQzNzUsInkiOjUyM30seyJ4Ijo4MjEuMTU2MjUsInkiOjUyM30seyJ4Ijo4NDAuNjU2MjUsInkiOjUyM31d" data-look="classic" marker-end="url(#my-svg_flowchart-v2-pointEnd)"/><path d="M1100.094,480.5L1103.594,480.5C1107.094,480.5,1114.094,480.5,1118.065,480.138C1122.037,479.776,1122.979,479.052,1123.813,478.219C1124.646,477.386,1125.37,476.443,1125.732,431.888C1126.094,387.333,1126.094,299.167,1126.456,254.612C1126.818,210.057,1127.541,209.114,1128.375,208.281C1129.208,207.448,1130.151,206.724,1171.417,206.362C1212.682,206,1294.271,206,1335.065,206L1375.859,206" id="my-svg-L_selector_impact_0_0" class="edge-thickness-normal edge-pattern-solid edge-thickness-normal edge-pattern-solid flowchart-link" style=";" data-edge="true" data-et="edge" data-id="L_selector_impact_0_0" data-points="W3sieCI6MTA5Ni4wOTM3NSwieSI6NDgwLjV9LHsieCI6MTEyNi4wOTM3NSwieSI6NDgwLjV9LHsieCI6MTEyNi4wOTM3NSwieSI6MjA2fSx7IngiOjEzNzkuODU5Mzc1LCJ5IjoyMDZ9XQ==" data-look="classic" marker-start="url(#my-svg_flowchart-v2-pointStart)" marker-end="url(#my-svg_flowchart-v2-pointEnd)"/><path d="M1100.094,518.75L1106.094,518.75C1112.094,518.75,1124.094,518.75,1130.565,519.112C1137.037,519.474,1137.979,520.198,1138.813,521.031C1139.646,521.864,1140.37,522.807,1140.732,541.487C1141.094,560.167,1141.094,596.583,1141.456,615.263C1141.818,633.943,1142.541,634.886,1143.375,635.719C1144.208,636.552,1145.151,637.276,1189.153,637.638C1233.155,638,1320.215,638,1363.746,638L1407.276,638" id="my-svg-L_selector_rule_0_0" class="edge-thickness-normal edge-pattern-solid edge-thickness-normal edge-pattern-solid flowchart-link" style=";" data-edge="true" data-et="edge" data-id="L_selector_rule_0_0" data-points="W3sieCI6MTA5Ni4wOTM3NSwieSI6NTE4Ljc1fSx7IngiOjExNDEuMDkzNzUsInkiOjUxOC43NX0seyJ4IjoxMTQxLjA5Mzc1LCJ5Ijo2Mzh9LHsieCI6MTQxMS4yNzYwNDE2NjY2NjY1LCJ5Ijo2Mzh9XQ==" data-look="classic" marker-start="url(#my-svg_flowchart-v2-pointStart)" marker-end="url(#my-svg_flowchart-v2-pointEnd)"/><path d="M1100.094,493.25L1106.094,493.25C1112.094,493.25,1124.094,493.25,1130.565,492.888C1137.037,492.526,1137.979,491.802,1138.813,490.969C1139.646,490.136,1140.37,489.193,1140.732,468.513C1141.094,447.833,1141.094,407.417,1141.456,386.737C1141.818,366.057,1142.541,365.114,1143.375,364.281C1144.208,363.448,1145.151,362.724,1183.917,362.362C1222.682,362,1299.271,362,1337.565,362L1375.859,362" id="my-svg-L_selector_test_0_0" class="edge-thickness-normal edge-pattern-solid edge-thickness-normal edge-pattern-solid flowchart-link" style=";" data-edge="true" data-et="edge" data-id="L_selector_test_0_0" data-points="W3sieCI6MTA5Ni4wOTM3NSwieSI6NDkzLjI1fSx7IngiOjExNDEuMDkzNzUsInkiOjQ5My4yNX0seyJ4IjoxMTQxLjA5Mzc1LCJ5IjozNjJ9LHsieCI6MTM3OS44NTkzNzUsInkiOjM2Mn1d" data-look="classic" marker-start="url(#my-svg_flowchart-v2-pointStart)" marker-end="url(#my-svg_flowchart-v2-pointEnd)"/><path d="M1100.094,506L1375.859,506" id="my-svg-L_selector_scorer_0_0" class="edge-thickness-normal edge-pattern-solid edge-thickness-normal edge-pattern-solid flowchart-link" style=";" data-edge="true" data-et="edge" data-id="L_selector_scorer_0_0" data-points="W3sieCI6MTA5Ni4wOTM3NSwieSI6NTA2fSx7IngiOjEzNzkuODU5Mzc1LCJ5Ijo1MDZ9XQ==" data-look="classic" marker-start="url(#my-svg_flowchart-v2-pointStart)" marker-end="url(#my-svg_flowchart-v2-pointEnd)"/><path d="M1096.094,531.5L1100.26,531.5C1104.427,531.5,1112.76,531.5,1117.398,531.862C1122.037,532.224,1122.979,532.948,1123.813,533.781C1124.646,534.614,1125.37,535.557,1125.732,578.029C1126.094,620.5,1126.094,704.5,1126.456,746.971C1126.818,789.443,1127.541,790.386,1128.375,791.219C1129.208,792.052,1130.151,792.776,1168.75,793.138C1207.349,793.5,1283.604,793.5,1322.565,793.5C1361.526,793.5,1363.193,793.5,1364.026,792.667C1364.859,791.833,1364.859,790.167,1364.859,789.917C1364.859,789.667,1364.859,790.833,1364.859,790.583C1364.859,790.333,1364.859,788.667,1365.693,787.833C1366.526,787,1368.193,787,1372.781,787C1377.369,787,1384.878,787,1388.633,787L1392.388,787" id="my-svg-L_selector_insight_0_0" class="edge-thickness-normal edge-pattern-solid edge-thickness-normal edge-pattern-solid flowchart-link" style=";" data-edge="true" data-et="edge" data-id="L_selector_insight_0_0" data-points="W3sieCI6MTA5Ni4wOTM3NSwieSI6NTMxLjV9LHsieCI6MTEyNi4wOTM3NSwieSI6NTMxLjV9LHsieCI6MTEyNi4wOTM3NSwieSI6NzkzLjV9LHsieCI6MTM2NC44NTkzNzUsInkiOjc5My41fSx7IngiOjEzNjQuODU5Mzc1LCJ5Ijo3ODd9LHsieCI6MTM5Ni4zODc1LCJ5Ijo3ODd9XQ==" data-look="classic" marker-end="url(#my-svg_flowchart-v2-pointEnd)"/><path d="M1639.859,206L1710.297,206C1780.734,206,1921.609,206,2031.82,206C2142.031,206,2221.578,206,2261.823,206.362C2302.068,206.724,2303.011,207.448,2303.844,208.281C2304.677,209.114,2305.401,210.057,2305.763,268.848C2306.125,327.64,2306.125,444.279,2306.487,503.071C2306.849,561.862,2307.573,562.805,2308.406,563.638C2309.239,564.471,2310.182,565.195,2312.737,565.557C2315.292,565.919,2319.458,565.919,2324.125,565.919C2328.792,565.919,2333.958,565.919,2336.542,565.919L2339.125,565.919" id="my-svg-L_impact_kg_0_0" class="edge-thickness-normal edge-pattern-solid edge-thickness-normal edge-pattern-solid flowchart-link" style=";" data-edge="true" data-et="edge" data-id="L_impact_kg_0_0" data-points="W3sieCI6MTYzOS44NTkzNzUsInkiOjIwNn0seyJ4IjoyMDYyLjQ4NDM3NSwieSI6MjA2fSx7IngiOjIzMDYuMTI1LCJ5IjoyMDZ9LHsieCI6MjMwNi4xMjUsInkiOjU2NS45MTkxNzQxOTQzMzU5fSx7IngiOjIzMjMuNjI1LCJ5Ijo1NjUuOTE5MTc0MTk0MzM1OX0seyJ4IjoyMzQzLjEyNSwieSI6NTY1LjkxOTE3NDE5NDMzNTl9XQ==" data-look="classic" marker-end="url(#my-svg_flowchart-v2-pointEnd)"/><path d="M1624.151,655L1697.207,655C1770.262,655,1916.373,655,1991.512,655C2066.651,655,2070.818,655,2073.734,655C2076.651,655,2078.318,655,2079.151,655.833C2079.984,656.667,2079.984,658.333,2079.984,658.917C2079.984,659.5,2079.984,659,2079.984,659.583C2079.984,660.167,2079.984,661.833,2080.818,662.667C2081.651,663.5,2083.318,663.5,2120.174,663.5C2157.031,663.5,2229.078,663.5,2265.573,663.862C2302.068,664.224,2303.011,664.948,2303.844,665.781C2304.677,666.614,2305.401,667.557,2305.763,674.945C2306.125,682.333,2306.125,696.165,2306.487,703.553C2306.849,710.941,2307.573,711.884,2308.406,712.717C2309.239,713.55,2310.182,714.274,2312.737,714.636C2315.292,714.998,2319.458,714.998,2324.125,714.998C2328.792,714.998,2333.958,714.998,2336.542,714.998L2339.125,714.998" id="my-svg-L_rule_catalog_0_0" class="edge-thickness-normal edge-pattern-solid edge-thickness-normal edge-pattern-solid flowchart-link" style=";" data-edge="true" data-et="edge" data-id="L_rule_catalog_0_0" data-points="W3sieCI6MTYyNC4xNTEwNDE2NjY2NjY1LCJ5Ijo2NTV9LHsieCI6MjA2Mi40ODQzNzUsInkiOjY1NX0seyJ4IjoyMDc5Ljk4NDM3NSwieSI6NjU1fSx7IngiOjIwNzkuOTg0Mzc1LCJ5Ijo2NjMuNX0seyJ4IjoyMzA2LjEyNSwieSI6NjYzLjV9LHsieCI6MjMwNi4xMjUsInkiOjcxNC45OTc5NzA1ODEwNTQ3fSx7IngiOjIzMjMuNjI1LCJ5Ijo3MTQuOTk3OTcwNTgxMDU0N30seyJ4IjoyMzQzLjEyNSwieSI6NzE0Ljk5Nzk3MDU4MTA1NDd9XQ==" data-look="classic" marker-end="url(#my-svg_flowchart-v2-pointEnd)"/><path d="M1624.151,621L1697.207,621C1770.262,621,1916.373,621,2032.952,621C2149.531,621,2236.578,621,2282.685,621C2328.792,621,2333.958,621,2336.542,621L2339.125,621" id="my-svg-L_rule_kg_0_0" class="edge-thickness-normal edge-pattern-solid edge-thickness-normal edge-pattern-solid flowchart-link" style=";" data-edge="true" data-et="edge" data-id="L_rule_kg_0_0" data-points="W3sieCI6MTYyNC4xNTEwNDE2NjY2NjY1LCJ5Ijo2MjF9LHsieCI6MjA2Mi40ODQzNzUsInkiOjYyMX0seyJ4IjoyMzIzLjYyNSwieSI6NjIxfSx7IngiOjIzNDMuMTI1LCJ5Ijo2MjF9XQ==" data-look="classic" marker-end="url(#my-svg_flowchart-v2-pointEnd)"/><path d="M1639.859,362L1710.297,362C1780.734,362,1921.609,362,2028.904,362C2136.198,362,2209.911,362,2247.24,362.362C2284.568,362.724,2285.511,363.448,2286.344,364.281C2287.177,365.114,2287.901,366.057,2288.263,403.439C2288.625,440.82,2288.625,514.64,2288.987,552.021C2289.349,589.402,2290.073,590.345,2290.906,591.179C2291.739,592.012,2292.682,592.736,2298.154,593.098C2303.625,593.46,2313.625,593.46,2321.208,593.46C2328.792,593.46,2333.958,593.46,2336.542,593.46L2339.125,593.46" id="my-svg-L_test_kg_0_0" class="edge-thickness-normal edge-pattern-solid edge-thickness-normal edge-pattern-solid flowchart-link" style=";" data-edge="true" data-et="edge" data-id="L_test_kg_0_0" data-points="W3sieCI6MTYzOS44NTkzNzUsInkiOjM2Mn0seyJ4IjoyMDYyLjQ4NDM3NSwieSI6MzYyfSx7IngiOjIyODguNjI1LCJ5IjozNjJ9LHsieCI6MjI4OC42MjUsInkiOjU5My40NTk1ODcwOTcxNjh9LHsieCI6MjMyMy42MjUsInkiOjU5My40NTk1ODcwOTcxNjh9LHsieCI6MjM0My4xMjUsInkiOjU5My40NTk1ODcwOTcxNjh9XQ==" data-look="classic" marker-end="url(#my-svg_flowchart-v2-pointEnd)"/><path d="M1628.841,795.5L1632.344,795.5C1635.847,795.5,1642.853,795.5,1646.828,795.862C1650.802,796.224,1651.745,796.948,1652.578,797.781C1653.412,798.614,1654.136,799.557,1654.497,814.362C1654.859,829.167,1654.859,857.833,1655.221,872.638C1655.583,887.443,1656.307,888.386,1657.14,889.219C1657.974,890.052,1658.917,890.776,1726.492,891.138C1794.068,891.5,1928.276,891.5,1997.464,891.5C2066.651,891.5,2070.818,891.5,2073.372,891.862C2075.927,892.224,2076.87,892.948,2077.703,893.781C2078.537,894.614,2079.261,895.557,2079.622,900.695C2079.984,905.833,2079.984,915.167,2079.622,920.305C2079.261,925.443,2078.537,926.386,2077.703,927.219C2076.87,928.052,2075.927,928.776,1969.928,929.138C1863.93,929.5,1652.875,929.5,1360.73,929.5C1068.586,929.5,695.352,929.5,460.798,929.5C226.245,929.5,130.372,929.5,81.965,929.138C33.557,928.776,32.614,928.052,31.781,927.219C30.948,926.386,30.224,925.443,29.862,793.721C29.5,662,29.5,399.5,29.862,267.779C30.224,136.057,30.948,135.114,31.781,134.281C32.614,133.448,33.557,132.724,93.562,132.362C153.568,132,272.635,132,334.753,132C396.87,132,402.036,132,404.62,132L407.203,132" id="my-svg-L_insight_llm_0_0" class="edge-thickness-normal edge-pattern-solid edge-thickness-normal edge-pattern-solid flowchart-link" style=";" data-edge="true" data-et="edge" data-id="L_insight_llm_0_0" data-points="W3sieCI6MTYyOC44NDA2MjUsInkiOjc5NS41fSx7IngiOjE2NTQuODU5Mzc1LCJ5Ijo3OTUuNX0seyJ4IjoxNjU0Ljg1OTM3NSwieSI6ODkxLjV9LHsieCI6MjA2Mi40ODQzNzUsInkiOjg5MS41fSx7IngiOjIwNzkuOTg0Mzc1LCJ5Ijo4OTEuNX0seyJ4IjoyMDc5Ljk4NDM3NSwieSI6OTI5LjV9LHsieCI6MTQ0MS44MjAzMTI1LCJ5Ijo5MjkuNX0seyJ4IjozMjIuMTE3MTg3NSwieSI6OTI5LjV9LHsieCI6MjkuNSwieSI6OTI5LjV9LHsieCI6MjkuNSwieSI6MTMyfSx7IngiOjM5MS43MDMxMjUsInkiOjEzMn0seyJ4Ijo0MTEuMjAzMTI1LCJ5IjoxMzJ9XQ==" data-look="classic" marker-end="url(#my-svg_flowchart-v2-pointEnd)"/><path d="M577.734,132L580.984,132C584.234,132,590.734,132,596.068,132C601.401,132,605.568,132,608.122,132.362C610.677,132.724,611.62,133.448,612.453,134.281C613.287,135.114,614.011,136.057,614.372,207.112C614.734,278.167,614.734,419.333,615.096,490.388C615.458,561.443,616.182,562.386,617.015,563.219C617.849,564.052,618.792,564.776,649.083,565.138C679.375,565.5,739.016,565.5,769.307,565.862C799.599,566.224,800.542,566.948,801.375,567.781C802.209,568.614,802.932,569.557,803.294,599.612C803.656,629.667,803.656,688.833,804.018,718.888C804.38,748.943,805.104,749.886,805.937,750.719C806.771,751.552,807.713,752.276,810.268,752.638C812.823,753,816.99,753,914.278,753C1011.567,753,1201.977,753,1297.182,753L1392.388,753" id="my-svg-L_llm_insight_0_0" class="edge-thickness-normal edge-pattern-solid edge-thickness-normal edge-pattern-solid flowchart-link" style=";" data-edge="true" data-et="edge" data-id="L_llm_insight_0_0" data-points="W3sieCI6NTc3LjczNDM3NSwieSI6MTMyfSx7IngiOjU5Ny4yMzQzNzUsInkiOjEzMn0seyJ4Ijo2MTQuNzM0Mzc1LCJ5IjoxMzJ9LHsieCI6NjE0LjczNDM3NSwieSI6NTY1LjV9LHsieCI6ODAzLjY1NjI1LCJ5Ijo1NjUuNX0seyJ4Ijo4MDMuNjU2MjUsInkiOjc1M30seyJ4Ijo4MjEuMTU2MjUsInkiOjc1M30seyJ4IjoxMzk2LjM4NzUsInkiOjc1M31d" data-look="classic" marker-end="url(#my-svg_flowchart-v2-pointEnd)"/><path d="M1628.841,744.5L1632.344,744.5C1635.847,744.5,1642.853,744.5,1646.828,744.138C1650.802,743.776,1651.745,743.052,1652.578,742.219C1653.412,741.386,1654.136,740.443,1654.497,737.555C1654.859,734.667,1654.859,729.833,1655.221,726.945C1655.583,724.057,1656.307,723.114,1657.14,722.281C1657.974,721.448,1658.917,720.724,1726.492,720.362C1794.068,720,1928.276,720,2032.237,720C2136.198,720,2209.911,720,2247.24,720.362C2284.568,720.724,2285.511,721.448,2286.344,722.281C2287.177,723.114,2287.901,724.057,2288.263,728.105C2288.625,732.152,2288.625,739.304,2288.987,743.351C2289.349,747.398,2290.073,748.341,2290.906,749.174C2291.739,750.008,2292.682,750.732,2298.154,751.094C2303.625,751.456,2313.625,751.456,2321.208,751.456C2328.792,751.456,2333.958,751.456,2336.542,751.456L2339.125,751.456" id="my-svg-L_insight_catalog_0_0" class="edge-thickness-normal edge-pattern-solid edge-thickness-normal edge-pattern-solid flowchart-link" style=";" data-edge="true" data-et="edge" data-id="L_insight_catalog_0_0" data-points="W3sieCI6MTYyOC44NDA2MjUsInkiOjc0NC41fSx7IngiOjE2NTQuODU5Mzc1LCJ5Ijo3NDQuNX0seyJ4IjoxNjU0Ljg1OTM3NSwieSI6NzIwfSx7IngiOjIwNjIuNDg0Mzc1LCJ5Ijo3MjB9LHsieCI6MjI4OC42MjUsInkiOjcyMH0seyJ4IjoyMjg4LjYyNSwieSI6NzUxLjQ1NTUyODI1OTI3NzN9LHsieCI6MjMyMy42MjUsInkiOjc1MS40NTU1MjgyNTkyNzczfSx7IngiOjIzNDMuMTI1LCJ5Ijo3NTEuNDU1NTI4MjU5Mjc3M31d" data-look="classic" marker-end="url(#my-svg_flowchart-v2-pointEnd)"/><path d="M1628.841,770L1854.609,770" id="my-svg-L_insight_composer_0_0" class="edge-thickness-normal edge-pattern-solid edge-thickness-normal edge-pattern-solid flowchart-link" style=";" data-edge="true" data-et="edge" data-id="L_insight_composer_0_0" data-points="W3sieCI6MTYyOC44NDA2MjUsInkiOjc3MH0seyJ4IjoxODU4LjYwOTM3NSwieSI6NzcwfV0=" data-look="classic" marker-end="url(#my-svg_flowchart-v2-pointEnd)"/><path d="M1858.609,804L1856.943,804C1855.276,804,1851.943,804,1849.805,804.362C1847.667,804.724,1846.724,805.448,1845.89,806.281C1845.057,807.114,1844.333,808.057,1843.971,818.779C1843.609,829.5,1843.609,850,1843.247,860.721C1842.886,871.443,1842.162,872.386,1841.328,873.219C1840.495,874.052,1839.552,874.776,1718.662,875.138C1597.771,875.5,1356.932,875.5,1236.042,875.138C1115.151,874.776,1114.208,874.052,1113.375,873.219C1112.541,872.386,1111.818,871.443,1111.456,817.43C1111.094,763.417,1111.094,656.333,1110.732,602.32C1110.37,548.307,1109.646,547.364,1108.813,546.531C1107.979,545.698,1107.037,544.974,1105.565,544.612C1104.094,544.25,1102.094,544.25,1101.094,544.25L1100.094,544.25" id="my-svg-L_composer_selector_0_0" class="edge-thickness-normal edge-pattern-solid edge-thickness-normal edge-pattern-solid flowchart-link" style=";" data-edge="true" data-et="edge" data-id="L_composer_selector_0_0" data-points="W3sieCI6MTg1OC42MDkzNzUsInkiOjgwNH0seyJ4IjoxODQzLjYwOTM3NSwieSI6ODA0fSx7IngiOjE4NDMuNjA5Mzc1LCJ5Ijo4NzUuNX0seyJ4IjoxMTExLjA5Mzc1LCJ5Ijo4NzUuNX0seyJ4IjoxMTExLjA5Mzc1LCJ5Ijo1NDQuMjV9LHsieCI6MTA5Ni4wOTM3NSwieSI6NTQ0LjI1fV0=" data-look="classic" marker-end="url(#my-svg_flowchart-v2-pointEnd)"/><path d="M1096.094,467.75L1097.76,467.75C1099.427,467.75,1102.76,467.75,1104.898,467.388C1107.037,467.026,1107.979,466.302,1108.813,465.469C1109.646,464.636,1110.37,463.693,1110.732,408.096C1111.094,352.5,1111.094,242.25,1111.456,186.654C1111.818,131.057,1112.541,130.114,1113.375,129.281C1114.208,128.448,1115.151,127.724,1273.354,127.362C1431.557,127,1747.021,127,1906.836,127C2066.651,127,2070.818,127,2073.372,126.638C2075.927,126.276,2076.87,125.552,2077.703,124.719C2078.537,123.886,2079.261,122.943,2079.622,107.055C2079.984,91.167,2079.984,60.333,2079.622,44.445C2079.261,28.557,2078.537,27.614,2077.703,26.781C2076.87,25.948,2075.927,25.224,1969.928,24.862C1863.93,24.5,1652.875,24.5,1360.73,24.5C1068.586,24.5,695.352,24.5,457.882,24.5C220.411,24.5,118.706,24.5,67.381,24.862C16.057,25.224,15.114,25.948,14.281,26.781C13.448,27.614,12.724,28.557,12.362,88.279C12,148,12,266.5,12.362,326.221C12.724,385.943,13.448,386.886,14.281,387.719C15.114,388.552,16.057,389.276,21.529,389.638C27,390,37,390,81.115,390C125.229,390,203.458,390,245.156,390C286.854,390,292.021,390,294.604,390L297.188,390" id="my-svg-L_selector_wa_0_0" class="edge-thickness-normal edge-pattern-solid edge-thickness-normal edge-pattern-solid flowchart-link" style=";" data-edge="true" data-et="edge" data-id="L_selector_wa_0_0" data-points="W3sieCI6MTA5Ni4wOTM3NSwieSI6NDY3Ljc1fSx7IngiOjExMTEuMDkzNzUsInkiOjQ2Ny43NX0seyJ4IjoxMTExLjA5Mzc1LCJ5IjoxMjd9LHsieCI6MjA2Mi40ODQzNzUsInkiOjEyN30seyJ4IjoyMDc5Ljk4NDM3NSwieSI6MTI3fSx7IngiOjIwNzkuOTg0Mzc1LCJ5IjoyNC41fSx7IngiOjE0NDEuODIwMzEyNSwieSI6MjQuNX0seyJ4IjozMjIuMTE3MTg3NSwieSI6MjQuNX0seyJ4IjoxMiwieSI6MjQuNX0seyJ4IjoxMiwieSI6MzkwfSx7IngiOjQ3LCJ5IjozOTB9LHsieCI6MjgxLjY4NzUsInkiOjM5MH0seyJ4IjozMDEuMTg3NSwieSI6MzkwfV0=" data-look="classic" marker-end="url(#my-svg_flowchart-v2-pointEnd)"/></g><g class="edgeLabels"><g class="edgeLabel"><g class="label" data-id="L_user_wa_0_0" transform="translate(0, 0)"><foreignObject width="0" height="0"><div xmlns="http://www.w3.org/1999/xhtml" class="labelBkg" style="display: table-cell; white-space: nowrap; line-height: 1.5; max-width: 200px; text-align: center;"><span class="edgeLabel"></span></div></foreignObject></g></g><g class="edgeLabel" transform="translate(709.1953125, 402.5)"><g class="label" data-id="L_wa_selector_0_0" transform="translate(-46.34375, -12)"><foreignObject width="92.6875" height="24"><div xmlns="http://www.w3.org/1999/xhtml" class="labelBkg" style="display: table-cell; white-space: nowrap; line-height: 1.5; max-width: 200px; text-align: center;"><span class="edgeLabel"><p>분석 요청 전달</p></span></div></foreignObject></g></g><g class="edgeLabel" transform="translate(709.1953125, 522.5)"><g class="label" data-id="L_ip_selector_0_0" transform="translate(-62.59375, -12)"><foreignObject width="125.1875" height="24"><div xmlns="http://www.w3.org/1999/xhtml" class="labelBkg" style="display: table-cell; white-space: nowrap; line-height: 1.5; max-width: 200px; text-align: center;"><span class="edgeLabel"><p>로컬 변경 내역 전달</p></span></div></foreignObject></g></g><g class="edgeLabel" transform="translate(1252.9765625, 205.5)"><g class="label" data-id="L_selector_impact_0_0" transform="translate(-69.203125, -12)"><foreignObject width="138.40625" height="24"><div xmlns="http://www.w3.org/1999/xhtml" class="labelBkg" style="display: table-cell; white-space: nowrap; line-height: 1.5; max-width: 200px; text-align: center;"><span class="edgeLabel"><p>영향 경로 탐색 / 결과</p></span></div></foreignObject></g></g><g class="edgeLabel" transform="translate(1252.9765625, 637.5)"><g class="label" data-id="L_selector_rule_0_0" transform="translate(-69.203125, -12)"><foreignObject width="138.40625" height="24"><div xmlns="http://www.w3.org/1999/xhtml" class="labelBkg" style="display: table-cell; white-space: nowrap; line-height: 1.5; max-width: 200px; text-align: center;"><span class="edgeLabel"><p>규칙 영향 분석 / 결과</p></span></div></foreignObject></g></g><g class="edgeLabel" transform="translate(1252.9765625, 361.5)"><g class="label" data-id="L_selector_test_0_0" transform="translate(-76.6484375, -12)"><foreignObject width="153.296875" height="24"><div xmlns="http://www.w3.org/1999/xhtml" class="labelBkg" style="display: table-cell; white-space: nowrap; line-height: 1.5; max-width: 200px; text-align: center;"><span class="edgeLabel"><p>경계·테스트 영향 / 결과</p></span></div></foreignObject></g></g><g class="edgeLabel" transform="translate(1252.9765625, 505.5)"><g class="label" data-id="L_selector_scorer_0_0" transform="translate(-76.1171875, -12)"><foreignObject width="152.234375" height="24"><div xmlns="http://www.w3.org/1999/xhtml" class="labelBkg" style="display: table-cell; white-space: nowrap; line-height: 1.5; max-width: 200px; text-align: center;"><span class="edgeLabel"><p>리스크 계산 요청 / 결과</p></span></div></foreignObject></g></g><g class="edgeLabel" transform="translate(1252.9765625, 793)"><g class="label" data-id="L_selector_insight_0_0" transform="translate(-96.8828125, -24)"><foreignObject width="193.765625" height="48"><div xmlns="http://www.w3.org/1999/xhtml" class="labelBkg" style="display: table-cell; white-space: nowrap; line-height: 1.5; max-width: 200px; text-align: center;"><span class="edgeLabel"><p>분석 결과 + 카탈로그 컨텍스트<br />인사이트 합성 요청</p></span></div></foreignObject></g></g><g class="edgeLabel" transform="translate(2184.3046875, 205.5)"><g class="label" data-id="L_impact_kg_0_0" transform="translate(-53.265625, -12)"><foreignObject width="106.53125" height="24"><div xmlns="http://www.w3.org/1999/xhtml" class="labelBkg" style="display: table-cell; white-space: nowrap; line-height: 1.5; max-width: 200px; text-align: center;"><span class="edgeLabel"><p>의존 그래프 조회</p></span></div></foreignObject></g></g><g class="edgeLabel" transform="translate(2184.3046875, 663)"><g class="label" data-id="L_rule_catalog_0_0" transform="translate(-63.125, -12)"><foreignObject width="126.25" height="24"><div xmlns="http://www.w3.org/1999/xhtml" class="labelBkg" style="display: table-cell; white-space: nowrap; line-height: 1.5; max-width: 200px; text-align: center;"><span class="edgeLabel"><p>규칙·코드 매핑 조회</p></span></div></foreignObject></g></g><g class="edgeLabel" transform="translate(2184.3046875, 620.5)"><g class="label" data-id="L_rule_kg_0_0" transform="translate(-53.265625, -12)"><foreignObject width="106.53125" height="24"><div xmlns="http://www.w3.org/1999/xhtml" class="labelBkg" style="display: table-cell; white-space: nowrap; line-height: 1.5; max-width: 200px; text-align: center;"><span class="edgeLabel"><p>데이터 흐름 조회</p></span></div></foreignObject></g></g><g class="edgeLabel" transform="translate(2184.3046875, 361.5)"><g class="label" data-id="L_test_kg_0_0" transform="translate(-86.8203125, -12)"><foreignObject width="173.640625" height="24"><div xmlns="http://www.w3.org/1999/xhtml" class="labelBkg" style="display: table-cell; white-space: nowrap; line-height: 1.5; max-width: 200px; text-align: center;"><span class="edgeLabel"><p>경계·테스트-코드 매핑 조회</p></span></div></foreignObject></g></g><g class="edgeLabel" transform="translate(709.1953125, 929)"><g class="label" data-id="L_insight_llm_0_0" transform="translate(-53.265625, -12)"><foreignObject width="106.53125" height="24"><div xmlns="http://www.w3.org/1999/xhtml" class="labelBkg" style="display: table-cell; white-space: nowrap; line-height: 1.5; max-width: 200px; text-align: center;"><span class="edgeLabel"><p>자연어 합성 요청</p></span></div></foreignObject></g></g><g class="edgeLabel" transform="translate(709.1953125, 565)"><g class="label" data-id="L_llm_insight_0_0" transform="translate(-43.9375, -12)"><foreignObject width="87.875" height="24"><div xmlns="http://www.w3.org/1999/xhtml" class="labelBkg" style="display: table-cell; white-space: nowrap; line-height: 1.5; max-width: 200px; text-align: center;"><span class="edgeLabel"><p>인사이트 응답</p></span></div></foreignObject></g></g><g class="edgeLabel" transform="translate(2184.3046875, 719.5)"><g class="label" data-id="L_insight_catalog_0_0" transform="translate(-74.0234375, -12)"><foreignObject width="148.046875" height="24"><div xmlns="http://www.w3.org/1999/xhtml" class="labelBkg" style="display: table-cell; white-space: nowrap; line-height: 1.5; max-width: 200px; text-align: center;"><span class="edgeLabel"><p>카탈로그 컨텍스트 조회</p></span></div></foreignObject></g></g><g class="edgeLabel" transform="translate(1749.234375, 769.5)"><g class="label" data-id="L_insight_composer_0_0" transform="translate(-79.375, -12)"><foreignObject width="158.75" height="24"><div xmlns="http://www.w3.org/1999/xhtml" class="labelBkg" style="display: table-cell; white-space: nowrap; line-height: 1.5; max-width: 200px; text-align: center;"><span class="edgeLabel"><p>분석·서사 결합 결과 전달</p></span></div></foreignObject></g></g><g class="edgeLabel" transform="translate(1509.859375, 875)"><g class="label" data-id="L_composer_selector_0_0" transform="translate(-100, -24)"><foreignObject width="200" height="48"><div xmlns="http://www.w3.org/1999/xhtml" class="labelBkg" style="display: table; white-space: break-spaces; line-height: 1.5; max-width: 200px; text-align: center; width: 200px;"><span class="edgeLabel"><p>완성된 영향·리스크 패키지 반환</p></span></div></foreignObject></g></g><g class="edgeLabel" transform="translate(709.1953125, 24)"><g class="label" data-id="L_selector_wa_0_0" transform="translate(-76.9609375, -12)"><foreignObject width="153.921875" height="24"><div xmlns="http://www.w3.org/1999/xhtml" class="labelBkg" style="display: table-cell; white-space: nowrap; line-height: 1.5; max-width: 200px; text-align: center;"><span class="edgeLabel"><p>영향·리스크 패키지 반환</p></span></div></foreignObject></g></g></g><text text-anchor="middle" x="1289.4905242919922" y="-25" class="flowchartTitleText">FS-05 구현 컴포넌트 뷰 — 영향·리스크 분석</text></svg>